<?xml version="1.0" standalone="no"?>
<!DOCTYPE svg PUBLIC "-//W3C//DTD SVG 20010904//EN"
 "http://www.w3.org/TR/2001/REC-SVG-20010904/DTD/svg10.dtd">
<svg version="1.0" xmlns="http://www.w3.org/2000/svg"
 width="965.000000pt" height="688.000000pt" viewBox="0 0 965.000000 688.000000"
 preserveAspectRatio="xMidYMid meet">

<g transform="translate(0.000000,688.000000) scale(0.100000,-0.100000)"
fill="#000000" stroke="none">
<path d="M4750 3534 c-2489 -1840 -4577 -3383 -4640 -3430 l-114 -84 874 0
875 0 3400 2501 c3259 2397 3400 2500 3403 2473 3 -28 -61 -1675 -74 -1901
l-6 -113 -1051 0 -1052 0 -347 -503 -347 -502 1381 -3 1380 -2 -6 -118 c-4
-64 -20 -454 -36 -867 -16 -412 -32 -798 -35 -857 l-7 -108 631 0 631 0 -5 53
c-3 28 -73 1553 -155 3387 -83 1834 -153 3354 -156 3378 -3 23 -8 42 -12 42
-4 -1 -2043 -1506 -4532 -3346z"/>
</g>
</svg>
